PathFileType  4	(X/Y/Z) C:\Users\wagnerel85475\Documents\Thesis\opencap-core\Data\3375ffbc-daeb-4a43-b4f7-ac9899cd4c71\MarkerData\PreAugmentation
DataRate	CameraRate	NumFrames	NumMarkers	Units	OrigDataRate	OrigDataStartFrame	OrigNumFrames
60.0	60.0	9	20	m	60.0	411	469
Frame#	Time	Neck			RShoulder			RElbow			RWrist			LShoulder			LElbow			LWrist			midHip			RHip			RKnee			RAnkle			LHip			LKnee			LAnkle			LBigToe			LSmallToe			LHeel			RBigToe			RSmallToe			RHeel			
		X1	Y1	Z1	X2	Y2	Z2	X3	Y3	Z3	X4	Y4	Z4	X5	Y5	Z5	X6	Y6	Z6	X7	Y7	Z7	X8	Y8	Z8	X9	Y9	Z9	X10	Y10	Z10	X11	Y11	Z11	X12	Y12	Z12	X13	Y13	Z13	X14	Y14	Z14	X15	Y15	Z15	X16	Y16	Z16	X17	Y17	Z17	X18	Y18	Z18	X19	Y19	Z19	X20	Y20	Z20	

411	6.8333333	2.1798700	1.3399900	-0.1304500	2.1714200	1.3395800	0.0522800	2.1307900	1.0521300	0.1341000	2.1961100	0.7635600	0.1773800	2.1854500	1.3451300	-0.3194400	2.1366500	1.0531800	-0.3750600	2.2085200	0.7512300	-0.4177300	2.2193600	0.8038400	-0.1099000	2.2261600	0.8047600	0.0030800	2.1270800	0.3163700	-0.0266400	2.0402900	-0.1807400	0.0005300	2.2091500	0.7980200	-0.2364100	2.1111700	0.2996200	-0.2141300	2.0569800	-0.1736700	-0.2426100	2.2668200	-0.2244700	-0.2921800	2.2341300	-0.2283100	-0.3249300	2.0040200	-0.2259400	-0.2497200	2.2714900	-0.2154600	0.0422200	2.2454700	-0.2258700	0.0648000	2.0001000	-0.2239500	-0.0052300
412	6.8500000	2.1797600	1.3399900	-0.1305200	2.1715400	1.3395800	0.0521800	2.1311500	1.0521700	0.1337700	2.1961900	0.7631400	0.1773300	2.1854400	1.3451500	-0.3194400	2.1368000	1.0540700	-0.3750300	2.2100100	0.7519400	-0.4164000	2.2193000	0.8039800	-0.1098800	2.2258100	0.8044400	0.0028200	2.1270900	0.3175400	-0.0265000	2.0402900	-0.1797100	0.0002900	2.2092300	0.7977500	-0.2363800	2.1110200	0.2986000	-0.2143000	2.0569800	-0.1738600	-0.2426600	2.2668000	-0.2244600	-0.2921900	2.2340100	-0.2285200	-0.3250700	2.0043000	-0.2257400	-0.2495200	2.2717500	-0.2160600	0.0417100	2.2454800	-0.2258400	0.0648100	2.0002600	-0.2233600	-0.0055200
413	6.8666667	2.1796400	1.3399700	-0.1306000	2.1716300	1.3396600	0.0521100	2.1311400	1.0520000	0.1337600	2.1962700	0.7634900	0.1772400	2.1854400	1.3451700	-0.3194300	2.1366100	1.0546500	-0.3752700	2.2110400	0.7530100	-0.4154000	2.2192300	0.8040000	-0.1098300	2.2260000	0.8046700	0.0029900	2.1271100	0.3188400	-0.0264100	2.0402700	-0.1783100	0.0003100	2.2092600	0.7977600	-0.2364100	2.1109300	0.2984700	-0.2141700	2.0569400	-0.1735500	-0.2427100	2.2668700	-0.2237100	-0.2919100	2.2339400	-0.2285400	-0.3251200	2.0042300	-0.2259200	-0.2496200	2.2716600	-0.2171600	0.0413700	2.2454700	-0.2258200	0.0648100	2.0003500	-0.2229500	-0.0057200
414	6.8833333	2.1798900	1.3399300	-0.1304000	2.1716200	1.3394100	0.0521000	2.1308100	1.0518800	0.1340300	2.1962800	0.7644300	0.1771700	2.1854400	1.3451800	-0.3194300	2.1356000	1.0547200	-0.3761300	2.2112200	0.7535700	-0.4151500	2.2192200	0.8039900	-0.1098300	2.2257200	0.8047700	0.0028400	2.1271200	0.3194900	-0.0263500	2.0402500	-0.1769800	0.0005800	2.2092800	0.7977900	-0.2365400	2.1109500	0.2986800	-0.2137900	2.0568900	-0.1728200	-0.2429100	2.2669800	-0.2226700	-0.2915400	2.2339600	-0.2285400	-0.3251100	2.0040800	-0.2259500	-0.2497000	2.2715500	-0.2176600	0.0412800	2.2454500	-0.2258100	0.0648100	2.0003400	-0.2228400	-0.0057700
415	6.9000000	2.1809900	1.3399200	-0.1296000	2.1715500	1.3389100	0.0521100	2.1298300	1.0519800	0.1349000	2.1962700	0.7654400	0.1771300	2.1854400	1.3452000	-0.3194300	2.1341100	1.0546000	-0.3773600	2.2109300	0.7538100	-0.4152200	2.2195000	0.8042200	-0.1101000	2.2245000	0.8043600	0.0020200	2.1271300	0.3198300	-0.0262700	2.0402500	-0.1762500	0.0008200	2.2093100	0.7973900	-0.2366700	2.1110100	0.2992400	-0.2133700	2.0568800	-0.1718800	-0.2432200	2.2670500	-0.2219900	-0.2912900	2.2340000	-0.2283700	-0.3250400	2.0040500	-0.2259700	-0.2497100	2.2715500	-0.2170700	0.0415000	2.2454500	-0.2258300	0.0648000	2.0003200	-0.2229000	-0.0057300
416	6.9166667	2.1826000	1.3398600	-0.1284500	2.1714900	1.3383600	0.0521000	2.1285000	1.0519300	0.1361200	2.1962400	0.7665700	0.1770900	2.1854500	1.3452100	-0.3194300	2.1330700	1.0544800	-0.3782000	2.2110000	0.7542600	-0.4149400	2.2201900	0.8043200	-0.1106900	2.2234300	0.8035100	0.0012200	2.1271100	0.3202300	-0.0261800	2.0402700	-0.1761400	0.0008900	2.2093000	0.7966400	-0.2367100	2.1110100	0.3000900	-0.2131900	2.0568600	-0.1712100	-0.2434400	2.2670500	-0.2218200	-0.2912300	2.2340500	-0.2277100	-0.3248100	2.0040600	-0.2259600	-0.2497100	2.2716200	-0.2161400	0.0417800	2.2454300	-0.2258300	0.0647900	2.0003400	-0.2229300	-0.0057300
417	6.9333333	2.1837200	1.3398200	-0.1276700	2.1715000	1.3383400	0.0520900	2.1276000	1.0518500	0.1369500	2.1962400	0.7675400	0.1770500	2.1854600	1.3452300	-0.3194200	2.1328000	1.0545400	-0.3784000	2.2122200	0.7553100	-0.4141200	2.2206200	0.8044300	-0.1110800	2.2231400	0.8033200	0.0009200	2.1271400	0.3205500	-0.0261300	2.0402700	-0.1761700	0.0008700	2.2092800	0.7960300	-0.2367200	2.1109900	0.3008900	-0.2132900	2.0568800	-0.1712500	-0.2434400	2.2670400	-0.2218600	-0.2912600	2.2341000	-0.2267600	-0.3244900	2.0040600	-0.2259200	-0.2497300	2.2717200	-0.2160300	0.0417400	2.2454500	-0.2258300	0.0648000	2.0004200	-0.2228700	-0.0058000
418	6.9500000	2.1840200	1.3398500	-0.1274700	2.1715600	1.3388400	0.0521000	2.1274100	1.0517000	0.1371400	2.1962400	0.7675300	0.1770500	2.1854700	1.3452100	-0.3194200	2.1328300	1.0544800	-0.3783900	2.2146600	0.7563500	-0.4134300	2.2202000	0.8051100	-0.1108200	2.2233100	0.8038300	0.0008800	2.1272400	0.3210800	-0.0260900	2.0402800	-0.1761000	0.0008500	2.2092900	0.7962800	-0.2367900	2.1109400	0.3016800	-0.2135100	2.0569000	-0.1717400	-0.2432800	2.2670200	-0.2218700	-0.2912800	2.2340300	-0.2260600	-0.3243200	2.0041000	-0.2258800	-0.2497400	2.2717900	-0.2168200	0.0414000	2.2455000	-0.2258300	0.0648200	2.0004700	-0.2228100	-0.0058600
419	6.9666667	2.1839800	1.3398600	-0.1275100	2.1716100	1.3393300	0.0521000	2.1275200	1.0515700	0.1370400	2.1962100	0.7664100	0.1771300	2.1854700	1.3452100	-0.3194200	2.1328100	1.0545900	-0.3784000	2.2170300	0.7569500	-0.4135500	2.2195400	0.8055100	-0.1103100	2.2235000	0.8043600	0.0008500	2.1273500	0.3218500	-0.0260100	2.0403000	-0.1761500	0.0009200	2.2093200	0.7973900	-0.2368600	2.1109400	0.3021800	-0.2136800	2.0569000	-0.1722400	-0.2431200	2.2670300	-0.2218300	-0.2912600	2.2339300	-0.2258800	-0.3243300	2.0042700	-0.2260600	-0.2496200	2.2715500	-0.2177300	0.0413300	2.2455200	-0.2258200	0.0648200	2.0001700	-0.2230800	-0.0055900
